<?xml version="1.0" encoding="UTF-8" standalone="no"?>
<!DOCTYPE svg PUBLIC "-//W3C//DTD SVG 1.1//EN" "http://www.w3.org/Graphics/SVG/1.1/DTD/svg11.dtd">
<svg width="100%" height="100%" viewBox="0 0 50 50" version="1.1" xmlns="http://www.w3.org/2000/svg" xmlns:xlink="http://www.w3.org/1999/xlink" xml:space="preserve" xmlns:serif="http://www.serif.com/" style="fill-rule:evenodd;clip-rule:evenodd;stroke-linejoin:round;stroke-miterlimit:2;">
    <g transform="matrix(1,0,0,1,4.5,4.5)">
        <path d="M41,20.815C41,32.169 32.169,41 20.815,41C9.462,41 0,32.169 0,20.815C0,9.462 9.462,0 20.815,0C32.169,0 41,9.462 41,20.815Z" style="fill:url(#_Linear1);"/>
    </g>
    <g transform="matrix(1,0,0,1,4.5,4.5)">
        <path d="M23.969,20.815L18.292,23.969C18.292,23.969 17.662,23.969 17.662,23.338L17.662,17.661L18.292,17.661L23.969,20.185C23.969,20.815 24.6,20.815 23.969,20.815ZM31.539,17.661C31.539,15.138 29.646,12.615 26.492,12.615L13.877,12.615C11.354,12.615 8.831,15.138 8.831,17.661L8.831,23.338C8.831,26.492 11.354,28.385 13.877,28.385L26.492,28.385C29.646,28.385 31.539,26.492 31.539,23.338L31.539,17.661Z" style="fill:rgb(254,254,254);fill-rule:nonzero;"/>
    </g>
    <defs>
        <linearGradient id="_Linear1" x1="0" y1="0" x2="1" y2="0" gradientUnits="userSpaceOnUse" gradientTransform="matrix(-29.0154,29.0154,-29.0154,-29.0154,35.3231,6.30769)"><stop offset="0" style="stop-color:rgb(252,30,39);stop-opacity:1"/><stop offset="1" style="stop-color:rgb(146,12,27);stop-opacity:1"/></linearGradient>
    </defs>
</svg>
