<?xml version="1.0" encoding="UTF-8" standalone="no"?>
<!DOCTYPE svg PUBLIC "-//W3C//DTD SVG 1.1//EN" "http://www.w3.org/Graphics/SVG/1.1/DTD/svg11.dtd">
<svg width="100%" height="100%" viewBox="0 0 50 50" version="1.1" xmlns="http://www.w3.org/2000/svg" xmlns:xlink="http://www.w3.org/1999/xlink" xml:space="preserve" xmlns:serif="http://www.serif.com/" style="fill-rule:evenodd;clip-rule:evenodd;stroke-linejoin:round;stroke-miterlimit:2;">
    <g transform="matrix(1,0,0,1,4.5,4.5)">
        <path d="M41,20.203C41,31.493 31.493,41 20.203,41C8.913,41 0,31.493 0,20.203C0,8.913 8.913,0 20.203,0C31.493,0 41,8.913 41,20.203Z" style="fill:url(#_Linear1);"/>
    </g>
    <g transform="matrix(1,0,0,1,4.5,4.5)">
        <path d="M31.493,13.667C30.898,13.667 30.304,13.667 29.116,14.261C29.71,14.261 30.304,13.073 30.304,13.073C30.898,12.478 30.898,12.478 31.493,11.884L31.493,11.29L30.898,11.884C30.304,11.884 29.116,12.478 28.522,12.478L27.927,12.478C27.927,11.884 27.333,11.884 26.739,11.29L24.956,11.29C24.362,11.29 23.768,11.29 23.174,11.884C22.58,11.884 21.985,12.478 21.391,13.073C20.797,13.667 20.797,14.261 20.203,14.855L20.203,16.638C16.638,16.044 13.667,14.855 11.29,11.884L10.696,11.884C10.101,13.667 10.101,16.638 11.884,17.826L12.478,18.421C12.478,18.421 11.29,17.826 10.696,17.826L10.101,17.826L10.101,18.421C10.696,20.203 11.884,21.392 13.073,21.986L13.667,21.986C13.667,21.986 13.073,22.58 11.884,21.986L11.884,22.58C12.478,24.363 14.261,24.957 15.449,25.551L16.044,25.551C15.449,26.145 14.261,26.739 13.667,26.739C12.478,27.334 11.29,27.334 10.101,27.334L9.507,27.334L10.101,27.928C11.29,28.522 11.884,28.522 13.073,29.116C17.232,30.305 22.58,29.116 26.145,26.145C28.522,23.174 29.71,19.609 29.71,16.044L29.71,15.45C30.304,14.855 30.898,14.261 31.493,13.667Z" style="fill:rgb(254,254,254);fill-rule:nonzero;"/>
    </g>
    <defs>
        <linearGradient id="_Linear1" x1="0" y1="0" x2="1" y2="0" gradientUnits="userSpaceOnUse" gradientTransform="matrix(-29.116,29.116,-29.116,-29.116,35.058,5.94203)"><stop offset="0" style="stop-color:rgb(0,179,224);stop-opacity:1"/><stop offset="1" style="stop-color:rgb(0,107,186);stop-opacity:1"/></linearGradient>
    </defs>
</svg>
