<?xml version="1.0" encoding="UTF-8" standalone="no"?>
<!DOCTYPE svg PUBLIC "-//W3C//DTD SVG 1.1//EN" "http://www.w3.org/Graphics/SVG/1.1/DTD/svg11.dtd">
<svg width="100%" height="100%" viewBox="0 0 50 50" version="1.1" xmlns="http://www.w3.org/2000/svg" xmlns:xlink="http://www.w3.org/1999/xlink" xml:space="preserve" xmlns:serif="http://www.serif.com/" style="fill-rule:evenodd;clip-rule:evenodd;stroke-linejoin:round;stroke-miterlimit:2;">
    <g transform="matrix(1,0,0,1,4.5,4.5)">
        <path d="M41,20.5C41,9.171 31.829,0 20.5,0C9.171,0 0,9.171 0,20.5C0,30.75 7.553,39.382 17.263,41L17.263,26.434L11.868,26.434L11.868,20.5L17.263,20.5L17.263,16.184C17.263,10.79 20.5,8.092 24.816,8.092C27.513,8.092 29.671,8.632 29.671,8.632L29.671,13.487L26.974,13.487C24.276,13.487 23.737,15.105 23.737,16.724L23.737,20.5L29.132,20.5L28.592,26.434L23.737,26.434L23.737,41C33.447,39.382 41,30.75 41,20.5Z" style="fill:url(#_Linear1);"/>
    </g>
    <g transform="matrix(1,0,0,1,4.5,4.5)">
        <path d="M28.592,26.434L29.132,20.5L23.737,20.5L23.737,16.723C23.737,15.105 24.276,13.487 26.974,13.487L29.671,13.487L29.671,8.631C29.671,8.631 27.513,8.092 24.816,8.092C20.5,8.092 17.263,10.789 17.263,16.184L17.263,20.5L11.868,20.5L11.868,26.434L17.263,26.434L17.263,41L23.737,41L23.737,26.434L28.592,26.434Z" style="fill:rgb(254,254,254);fill-rule:nonzero;"/>
    </g>
    <defs>
        <linearGradient id="_Linear1" x1="0" y1="0" x2="1" y2="0" gradientUnits="userSpaceOnUse" gradientTransform="matrix(29.1316,29.1316,-29.1316,29.1316,5.93421,5.93421)"><stop offset="0" style="stop-color:rgb(24,103,182);stop-opacity:1"/><stop offset="1" style="stop-color:rgb(40,49,132);stop-opacity:1"/></linearGradient>
    </defs>
</svg>
