<?xml version="1.0" encoding="UTF-8" standalone="no"?>
<!DOCTYPE svg PUBLIC "-//W3C//DTD SVG 1.1//EN" "http://www.w3.org/Graphics/SVG/1.1/DTD/svg11.dtd">
<svg width="100%" height="100%" viewBox="0 0 416 110" version="1.1" xmlns="http://www.w3.org/2000/svg" xmlns:xlink="http://www.w3.org/1999/xlink" xml:space="preserve" xmlns:serif="http://www.serif.com/" style="fill-rule:evenodd;clip-rule:evenodd;stroke-linejoin:round;stroke-miterlimit:2;">
    <g transform="matrix(1,0,0,1,10.0001,13.0099)">
        <path d="M39.359,25.715C39.359,23.592 41.04,21.894 43.141,21.894C45.242,21.894 46.922,23.592 46.922,25.715L46.922,26.097C47.09,27.073 48.141,27.965 49.527,28.687C51.376,29.621 53.729,30.087 55.871,30.087C56.628,30.087 57.342,30.045 57.888,29.918C59.947,29.536 61.922,30.936 62.3,33.017C62.678,35.097 61.291,37.092 59.233,37.432C58.14,37.644 57.006,37.729 55.871,37.729C52.93,37.729 49.653,37.092 46.88,35.861L46.88,40.7C46.88,40.913 46.88,41.167 46.922,41.38C47.216,43.035 48.771,44.436 50.872,45.497C53.435,46.771 56.628,47.408 59.569,47.408C60.619,47.408 61.544,47.323 62.342,47.195C64.401,46.813 66.375,48.214 66.712,50.294C67.09,52.375 65.703,54.37 63.644,54.709C62.3,54.964 60.913,55.091 59.527,55.091C55.535,55.091 51.124,54.157 47.51,52.375L46.88,52.035L46.88,82.175C46.88,84.298 45.2,85.996 43.099,85.996C31.334,85.996 20.704,81.199 13.016,73.388C5.327,65.619 0.537,54.837 0.537,42.993C0.537,31.106 5.285,20.366 13.016,12.598C20.368,5.168 30.368,0.456 41.502,0.032C42.594,-0.011 43.687,-0.011 44.779,0.032C49.863,0.244 54.779,1.348 59.401,3.258C64.527,5.423 69.232,8.565 73.224,12.555C77.215,16.588 80.325,21.343 82.425,26.522C84.526,31.701 85.661,37.262 85.661,42.95C85.661,48.639 84.568,54.242 82.425,59.379C80.283,64.558 77.173,69.313 73.224,73.346C71.753,74.831 69.358,74.831 67.846,73.346C66.375,71.86 66.375,69.44 67.846,67.912C71.123,64.6 73.686,60.695 75.451,56.45C77.173,52.205 78.098,47.578 78.098,42.908C78.098,38.238 77.173,33.611 75.451,29.366C73.728,25.163 71.165,21.258 67.846,17.904C64.569,14.593 60.703,12.003 56.502,10.22C52.594,8.607 48.435,7.673 44.191,7.546C43.435,7.503 42.721,7.546 41.964,7.546C32.763,7.843 24.444,11.748 18.352,17.861C12.007,24.272 8.1,33.102 8.1,42.865C8.1,52.629 12.007,61.459 18.352,67.869C23.856,73.43 31.166,77.124 39.275,78.015L39.275,51.908L38.645,52.247C35.032,54.073 30.578,54.964 26.629,54.964C25.242,54.964 23.856,54.837 22.511,54.582C20.452,54.2 19.108,52.205 19.444,50.167C19.822,48.087 21.797,46.728 23.814,47.068C24.612,47.195 25.578,47.28 26.587,47.28C29.528,47.28 32.721,46.644 35.284,45.37C37.385,44.351 38.939,42.908 39.233,41.252C39.275,41.04 39.275,40.785 39.275,40.573L39.275,35.734C36.502,36.965 33.225,37.601 30.284,37.601C29.192,37.601 28.057,37.517 26.923,37.304C24.864,36.922 23.519,34.927 23.856,32.889C24.234,30.809 26.208,29.451 28.225,29.79C28.771,29.875 29.486,29.96 30.242,29.96C32.385,29.96 34.738,29.493 36.628,28.559C38.015,27.88 39.065,26.988 39.233,25.97C39.233,25.842 39.359,25.868 39.359,25.823C39.359,25.639 39.359,25.715 39.359,25.715Z" style="fill:rgb(139,193,160);"/>
    </g>
    <g transform="matrix(1,0,0,1,10.0001,13.0099)">
        <path d="M137.058,67.317L145.63,67.317L125.756,22.786L117.689,22.786L97.858,67.317L106.303,67.317L110.631,57.002L132.647,57.002L137.058,67.317ZM113.404,50.507L121.639,31.064L129.958,50.507L113.404,50.507ZM150.461,67.317L158.318,67.317L158.318,20.111L150.461,20.111L150.461,67.317ZM181.511,32.974C176.091,32.974 170.881,34.375 167.268,37.177L170.335,42.95C172.856,40.87 176.763,39.597 180.545,39.597C186.133,39.597 188.906,42.314 188.906,46.983L188.906,47.493L180.209,47.493C169.999,47.493 166.217,51.95 166.217,57.596C166.217,63.497 171.049,67.784 178.738,67.784C183.78,67.784 187.435,66.129 189.326,63.2L189.326,67.317L196.763,67.317L196.763,47.408C196.763,37.601 191.175,32.974 181.469,32.974L181.511,32.974ZM180.461,61.969C176.427,61.969 174.032,60.143 174.032,57.256C174.032,54.794 175.461,52.757 180.839,52.757L188.948,52.757L188.948,56.705C187.645,60.185 184.284,61.969 180.461,61.969ZM249.324,32.974C243.988,32.974 239.451,35.139 236.72,38.62C234.409,34.8 230.291,32.974 225.375,32.974C220.796,32.974 216.888,34.63 214.367,37.686L214.367,33.356L206.888,33.356L206.888,67.317L214.745,67.317L214.745,50.082C214.745,43.332 218.275,39.894 223.485,39.894C228.274,39.894 231.047,42.823 231.047,48.851L231.047,67.317L238.904,67.317L238.904,50.082C238.904,43.332 242.476,39.894 247.644,39.894C252.433,39.894 255.206,42.823 255.206,48.851L255.206,67.317L263.063,67.317L263.063,47.875C263.063,37.644 257.391,32.974 249.282,32.974L249.324,32.974ZM304.659,67.317L314.238,67.317L294.617,42.696L313.104,22.786L303.903,22.786L282.138,45.625L282.138,22.786L273.945,22.786L273.945,67.317L282.138,67.317L282.138,55.94L289.113,48.681L304.659,67.317ZM322.431,27.753C325.373,27.753 327.473,25.588 327.473,22.786C327.473,20.196 325.331,18.201 322.431,18.201C319.532,18.201 317.39,20.281 317.39,22.956C317.39,25.63 319.532,27.71 322.431,27.71L322.431,27.753ZM318.482,67.317L326.339,67.317L326.339,33.356L318.482,33.356L318.482,67.317ZM354.699,59.804C353.523,60.737 351.926,61.204 350.288,61.204C347.263,61.204 345.624,59.421 345.624,56.11L345.624,39.936L354.615,39.936L354.615,33.569L345.624,33.569L345.624,25.8L337.767,25.8L337.767,33.569L332.221,33.569L332.221,39.936L337.767,39.936L337.767,56.28C337.767,63.794 341.969,67.742 349.363,67.742C352.178,67.742 355.036,66.978 356.926,65.45L354.741,59.804L354.699,59.804ZM376.211,32.974C370.791,32.974 365.581,34.375 361.968,37.177L365.035,42.95C367.556,40.87 371.464,39.597 375.245,39.597C380.833,39.597 383.606,42.314 383.606,46.983L383.606,47.493L374.909,47.493C364.699,47.493 360.918,51.95 360.918,57.596C360.918,63.497 365.75,67.784 373.438,67.784C378.48,67.784 382.136,66.129 384.026,63.2L384.026,67.317L391.463,67.317L391.463,47.408C391.463,37.601 385.875,32.974 376.169,32.974L376.211,32.974ZM375.161,61.969C371.128,61.969 368.733,60.143 368.733,57.256C368.733,54.794 370.161,52.757 375.539,52.757L383.648,52.757L383.648,56.705C382.346,60.185 378.984,61.969 375.161,61.969Z" style="fill:rgb(0,52,47);fill-rule:nonzero;"/>
    </g>
</svg>
