<?xml version="1.0" encoding="UTF-8" standalone="no"?>
<!DOCTYPE svg PUBLIC "-//W3C//DTD SVG 1.1//EN" "http://www.w3.org/Graphics/SVG/1.1/DTD/svg11.dtd">
<svg width="100%" height="100%" viewBox="0 0 74 74" version="1.1" xmlns="http://www.w3.org/2000/svg" xmlns:xlink="http://www.w3.org/1999/xlink" xml:space="preserve" xmlns:serif="http://www.serif.com/" style="fill-rule:evenodd;clip-rule:evenodd;stroke-linejoin:round;stroke-miterlimit:2;">
    <g transform="matrix(1.0137,0,0,1.0137,-2.0274,-1.0137)">
        <circle cx="38.5" cy="37.5" r="36.5" style="fill:rgb(139,193,160);"/>
    </g>
    <g transform="matrix(1.27271,0,0,1.27271,9.89868,9.00206)">
        <path d="M19.862,13.156C19.862,12.07 20.722,11.201 21.796,11.201C22.871,11.201 23.731,12.07 23.731,13.156L23.731,13.351C23.817,13.851 24.354,14.307 25.064,14.676C26.01,15.154 27.213,15.393 28.31,15.393C28.696,15.393 29.062,15.371 29.341,15.306C30.395,15.111 31.405,15.827 31.598,16.892C31.792,17.956 31.082,18.976 30.029,19.15C29.47,19.259 28.89,19.302 28.31,19.302C26.805,19.302 25.128,18.976 23.709,18.347L23.709,20.823C23.709,20.931 23.709,21.061 23.731,21.17C23.881,22.017 24.677,22.734 25.752,23.277C27.063,23.928 28.696,24.254 30.201,24.254C30.738,24.254 31.211,24.211 31.62,24.145C32.673,23.95 33.683,24.667 33.855,25.731C34.049,26.795 33.339,27.816 32.286,27.99C31.598,28.12 30.889,28.185 30.18,28.185C28.138,28.185 25.881,27.707 24.032,26.795L23.709,26.621L23.709,42.041C23.709,43.127 22.85,43.996 21.775,43.996C15.756,43.996 10.318,41.542 6.384,37.546C2.45,33.571 0,28.055 0,21.995C0,15.914 2.429,10.419 6.384,6.445C10.146,2.644 15.262,0.233 20.958,0.016C21.517,-0.005 22.076,-0.005 22.635,0.016C25.236,0.125 27.751,0.69 30.115,1.667C32.737,2.775 35.145,4.382 37.187,6.423C39.229,8.486 40.82,10.919 41.895,13.569C42.969,16.218 43.55,19.063 43.55,21.974C43.55,24.884 42.991,27.751 41.895,30.379C40.798,33.028 39.208,35.461 37.187,37.524C36.435,38.284 35.21,38.284 34.436,37.524C33.683,36.764 33.683,35.526 34.436,34.744C36.112,33.05 37.423,31.052 38.326,28.88C39.208,26.708 39.681,24.341 39.681,21.952C39.681,19.563 39.208,17.196 38.326,15.024C37.445,12.874 36.134,10.876 34.436,9.16C32.759,7.466 30.781,6.141 28.632,5.229C26.633,4.403 24.505,3.926 22.334,3.86C21.947,3.839 21.581,3.86 21.195,3.86C16.487,4.012 12.231,6.011 9.114,9.138C5.868,12.418 3.869,16.935 3.869,21.93C3.869,26.925 5.868,31.443 9.114,34.722C11.93,37.567 15.67,39.457 19.819,39.913L19.819,26.556L19.496,26.73C17.648,27.664 15.369,28.12 13.349,28.12C12.639,28.12 11.93,28.055 11.242,27.924C10.189,27.729 9.501,26.708 9.673,25.666C9.866,24.602 10.877,23.907 11.909,24.08C12.317,24.145 12.811,24.189 13.327,24.189C14.832,24.189 16.466,23.863 17.777,23.212C18.852,22.69 19.647,21.952 19.797,21.105C19.819,20.996 19.819,20.866 19.819,20.757L19.819,18.282C18.4,18.911 16.723,19.237 15.219,19.237C14.66,19.237 14.08,19.194 13.499,19.085C12.446,18.89 11.758,17.869 11.93,16.826C12.123,15.762 13.134,15.067 14.166,15.241C14.445,15.284 14.81,15.328 15.197,15.328C16.294,15.328 17.497,15.089 18.465,14.611C19.174,14.264 19.711,13.807 19.797,13.286C19.797,13.221 19.862,13.234 19.862,13.211C19.862,13.117 19.862,13.156 19.862,13.156Z" style="fill:white;"/>
    </g>
</svg>
